# xmcd
#
# Track frame offsets: 
#        150
#        11777
#        25779
#        35386
#        46157
#        56070
#        71046
#        80465
#        89920
#        103099
#
# Disc length: 1527 seconds
#
# Revision: 1
# Processed by: cddbd v1.5.2PL0 Copyright (c) Steve Scherf et al.
# Submitted via: ExactAudioCopy v1.0b1
#
DISCID=8305f50a
DTITLE=Porter Wagoner - Skid Row Joe Down In The Alley
DYEAR=1970
DGENRE=Country
TTITLE0=Here's is a Tost to Mama
TTITLE1=Sidewalks Of Chicago
TTITLE2=The Silent Kind
TTITLE3=The Alley
TTITLE4=The Town Drunk
TTITLE5=Mama
TTITLE6=Bottle of Wine
TTITLE7=One More Dime
TTITLE8=I Judge A Man
TTITLE9=When I Drink My Wine
EXTD=RCA LP - LSP4386
EXTT0=
EXTT1=
EXTT2=
EXTT3=
EXTT4=
EXTT5=
EXTT6=
EXTT7=
EXTT8=
EXTT9=
PLAYORDER=
